# xmcd
#
# Track frame offsets: 
#        150
#        21588
#        35645
#        56207
#        74414
#        91688
#        112510
#        131587
#        150645
#        165784
#        180220
#        196044
#        210601
#        231992
#        246060
#        260303
#
# Disc length: 3771 seconds
#
# Revision: 1
# Processed by: cddbd v1.5.2PL0 Copyright (c) Steve Scherf et al.
# Submitted via: ExactAudioCopyFreeDBPlugin 1.0
#
DISCID=c80eb910
DTITLE=Julian Dawson - Life And Soul (Demos And Rarities CD3)
DYEAR=2013
DGENRE=Countryrock
TTITLE0=When Hearts Collide
TTITLE1=Cindy Doll (Disco Mix)
TTITLE2=Where Are All The Lonely Girls
TTITLE3=Sunday Into Saturday Night
TTITLE4=Lovelight
TTITLE5=Where Do Gurus Go
TTITLE6=Shrink
TTITLE7=We´ve Been Through Fire
TTITLE8=Just For The Joy Of Living
TTITLE9=Lost Without Your Loving
TTITLE10=Stone Deaf Dumb and Blind
TTITLE11=I Like Your Absence
TTITLE12=How Can I Sleep Without You (Duet)
TTITLE13=I Still Believe In Love
TTITLE14=When Love Says Goodnight
TTITLE15=Harp To Heart
EXTD=
EXTT0=
EXTT1=
EXTT2=
EXTT3=
EXTT4=
EXTT5=
EXTT6=
EXTT7=
EXTT8=
EXTT9=
EXTT10=
EXTT11=
EXTT12=
EXTT13=
EXTT14=
EXTT15=
PLAYORDER=
